<svg width="32" height="33" viewBox="0 0 32 33" fill="none" xmlns="http://www.w3.org/2000/svg">
<g clip-path="url(#clip0_546_347)">
<path fill-rule="evenodd" clip-rule="evenodd" d="M15.4998 1.60484L3.58398 13.5207L7.32411 17.2608L19.2399 5.34497C19.6305 4.95445 19.6305 4.32128 19.2399 3.93076L16.914 1.60484C16.5235 1.21432 15.8903 1.21432 15.4998 1.60484ZM12.7062 16.5536C12.3157 16.9441 12.3157 17.5773 12.7062 17.9678L15.0322 20.2937C15.4227 20.6842 16.0558 20.6842 16.4464 20.2937L25.3175 11.4226C25.708 11.032 25.708 10.3989 25.3175 10.0083L22.9916 7.68243C22.6011 7.29191 21.9679 7.29191 21.5774 7.68243L12.7062 16.5536Z" fill="#171717"/>
<path fill-rule="evenodd" clip-rule="evenodd" d="M1.01848 16.086C0.627955 16.4766 0.627955 17.1097 1.01848 17.5002L15.4998 31.9816C15.8903 32.3721 16.5235 32.3721 16.914 31.9816L19.2399 29.6557C19.384 29.5116 19.4749 29.3344 19.5127 29.1487C19.6987 29.111 19.8761 29.02 20.0204 28.8758L31.3956 17.5005C31.7861 17.11 31.7861 16.4769 31.3956 16.0863L29.0697 13.7604C28.6792 13.3699 28.046 13.3699 27.6555 13.7604L16.2802 25.1356C16.2556 25.1603 16.2325 25.1859 16.2109 25.2124L4.75861 13.7601C4.36808 13.3696 3.73492 13.3696 3.34439 13.7601L1.01848 16.086Z" fill="#EA580C"/>
</g>
<defs>
<clipPath id="clip0_546_347">
<rect y="0.585754" width="32" height="32" rx="16" fill="white"/>
</clipPath>
</defs>
</svg>
